<svg width="42" height="22" viewBox="0 0 42 22" fill="none" xmlns="http://www.w3.org/2000/svg">
<path d="M2.926 0C2.926 0 0 0 0 2.93614V18.811C0 18.811 0 22 3.178 22H39.074C39.074 22 42 22 42 19.0639V10.0728C42 10.0728 42 0 31.962 0H2.926Z" fill="#6A2875"/>
<path d="M5.98742 7.78702C6.94742 7.78702 7.12075 7.82718 7.20075 8.04137C7.25408 8.21539 7.29408 8.53667 7.33408 8.83118C7.96075 8.1083 8.97408 7.59961 10.1607 7.59961C11.3474 7.59961 12.2941 7.98782 12.8807 8.65715C13.5207 9.38003 13.8007 10.3305 13.8007 11.8164V17.8538C13.8007 18.0679 13.6807 18.1483 12.5341 18.1483H12.4407C11.1741 18.1483 11.1341 18.0679 11.1341 17.8538V12.5527C11.1341 11.2006 11.0541 10.7856 10.7474 10.4376C10.4941 10.1431 10.0007 9.98243 9.44075 9.98243C8.98741 9.98243 8.48075 10.0761 8.13408 10.2903C7.72075 10.5447 7.62742 10.8659 7.58742 11.3345C7.54742 11.7896 7.54742 12.5125 7.54742 13.2621V17.8538C7.54742 18.0679 7.42742 18.1483 6.28075 18.1483H6.18742C4.92075 18.1483 4.88075 18.0679 4.88075 17.8538V12.4456C4.88075 10.9195 4.82742 9.206 4.74742 8.14846C4.73409 7.88073 4.80075 7.80041 5.92075 7.80041H5.98742V7.78702Z" fill="white"/>
<path d="M21.3864 10.799C20.8931 10.21 20.3064 9.90213 19.6264 9.90213C18.1998 9.90213 17.5198 11.04 17.5198 13.1149C17.5198 14.2662 17.7864 15.0158 18.1864 15.471C18.5331 15.8859 19.1064 16.0332 19.6531 16.0332C20.1998 16.0332 20.8264 15.8324 21.1198 15.5245C21.3331 15.2835 21.3864 14.9757 21.3864 14.467V10.799ZM22.7998 3.2356C23.9464 3.2356 24.0664 3.31592 24.0664 3.5301V15.5111C24.0664 15.9395 24.2398 16.06 24.6264 16.06C24.8664 16.06 24.8798 16.1537 24.8798 16.8632V17.0774C24.8798 17.7601 24.8398 17.9207 24.7064 17.9743C24.3598 18.1081 23.8264 18.2152 23.3064 18.2152C22.4398 18.2152 21.8664 17.827 21.5998 17.238C20.9331 17.9475 19.9598 18.3357 18.8798 18.3357C16.3198 18.3357 14.7598 16.3277 14.7598 13.1149C14.7598 9.64778 16.4931 7.58624 19.0531 7.58624C19.9731 7.58624 20.7331 7.89414 21.3731 8.46976V3.5301C21.3731 3.31592 21.4131 3.2356 22.6798 3.2356H22.7998Z" fill="white"/>
<path d="M29.7605 15.9263C30.0938 15.3373 30.2672 15.1632 30.4805 15.3239C31.2405 15.8326 32.1605 16.1672 32.9872 16.1672C34.0272 16.1672 34.6272 15.779 34.6272 15.2436C34.6272 13.7175 29.6272 14.6546 29.6272 10.9063C29.6272 8.84477 31.3872 7.58643 33.6672 7.58643C34.9605 7.58643 36.0672 7.93448 36.8938 8.56365C37.0938 8.69751 37.0538 8.85815 36.6538 9.52748L36.4805 9.8086C36.1338 10.411 35.9872 10.5181 35.7738 10.3708C35.1472 9.98263 34.5472 9.74167 33.7738 9.74167C33.2138 9.74167 32.7605 9.86215 32.5072 10.0763C32.3338 10.237 32.2405 10.411 32.2405 10.652C32.2405 12.1245 37.2405 11.3615 37.2405 14.8955C37.2405 15.7924 36.8672 16.6625 36.2405 17.2649C35.5205 17.9744 34.4405 18.3493 33.0138 18.3493C31.5072 18.3493 30.1872 17.854 29.3738 17.1712C29.2138 17.0374 29.2405 16.8633 29.5472 16.2877L29.7605 15.9263Z" fill="white"/>
<path d="M27.345 7.78711C28.505 7.78711 28.6116 7.86743 28.6116 8.08161V17.8538C28.6116 18.068 28.4916 18.1483 27.345 18.1483H27.2383C25.9716 18.1483 25.9316 18.068 25.9316 17.8538V8.08161C25.9316 7.86743 25.9716 7.78711 27.2383 7.78711H27.345Z" fill="white"/>
<path d="M27.2395 6.68934C28.1862 6.68934 28.9595 5.91292 28.9595 4.96247C28.9595 4.01202 28.1862 3.2356 27.2395 3.2356C26.2929 3.2356 25.5195 4.01202 25.5195 4.96247C25.5195 5.91292 26.2929 6.68934 27.2395 6.68934Z" fill="#82C341"/>
</svg>
